<svg width="22" height="22" viewBox="0 0 560 560" fill="none" xmlns="http://www.w3.org/2000/svg">
<path d="M560 560H0V0H560V560ZM250.406 80C248.111 80 246.25 81.8658 246.25 84.167V175.833C246.25 178.134 244.389 180 242.094 180H84.1562C81.8608 180 80 181.866 80 184.167V275.833C80 278.134 81.8608 280 84.1562 280H231.249L231.995 280.065C235.63 280.68 236.766 285.707 233.375 287.747L84.043 377.575C81.5393 379.081 80.0001 381.793 80 384.72V438.333C80 461.345 98.6082 480 121.562 480H341.844C344.139 480 346 478.134 346 475.833V384.167C346 381.866 347.861 380 350.156 380H474.844C477.139 380 479 378.134 479 375.833V121.667C479 98.6551 460.392 80 437.438 80H250.406ZM341.844 180C344.139 180 346 181.866 346 184.167V375.833C346 378.134 344.139 380 341.844 380H250.406C248.111 380 246.25 378.134 246.25 375.833V184.167C246.25 181.866 248.111 180 250.406 180H341.844Z" fill="black"/>
</svg>
